<?xml version="1.0" encoding="UTF-8"?>
<svg version="1.1" xmlns="http://www.w3.org/2000/svg" width="160" height="58">
<path d="M0 0 C52.8 0 105.6 0 160 0 C160 19.14 160 38.28 160 58 C107.2 58 54.4 58 0 58 C0 38.86 0 19.72 0 0 Z " fill="#6B6E74" transform="translate(0,0)"/>
<path d="M0 0 C0.33 1.65 0.66 3.3 1 5 C1.33 3.35 1.66 1.7 2 0 C9.14893844 1.02127692 12.81675629 4.42234173 17 10 C18.61381209 14.84143626 19.01188467 18.8011641 16.87109375 23.453125 C14.5001227 27.29125045 12.90539716 29.58212439 8.75 31.5 C7.38875 31.7475 7.38875 31.7475 6 32 C5.01 32.495 5.01 32.495 4 33 C2.00039988 33.039992 -0.00047242 33.04346799 -2 33 C-2.33 30.69 -2.66 28.38 -3 26 C-3.33 27.98 -3.66 29.96 -4 32 C-9.03372844 30.56179187 -10.98955889 28.09754485 -14 24 C-15.45016555 19.64950335 -15.51070107 15.54665815 -15 11 C-11.90781383 4.81562766 -7.21867376 0 0 0 Z " fill="#6F7278" transform="translate(54,14)"/>
<path d="M0 0 C2.64 0 5.28 0 8 0 C8 19.14 8 38.28 8 58 C5.36 58 2.72 58 0 58 C0 38.86 0 19.72 0 0 Z " fill="#71BD46" transform="translate(0,0)"/>
<path d="M0 0 C0.33 1.65 0.66 3.3 1 5 C1.66 5 2.32 5 3 5 C2.67 3.35 2.34 1.7 2 0 C4.64 0 7.28 0 10 0 C9.67 0.66 9.34 1.32 9 2 C8.76970044 4.37123246 8.58880058 6.74741943 8.4375 9.125 C8.35371094 10.40632813 8.26992187 11.68765625 8.18359375 13.0078125 C8.09271484 14.48894531 8.09271484 14.48894531 8 16 C8.66 16.33 9.32 16.66 10 17 C7.36 17 4.72 17 2 17 C2.33 15.68 2.66 14.36 3 13 C2.34 13 1.68 13 1 13 C1 12.34 1 11.68 1 11 C0.34 11 -0.32 11 -1 11 C-1 12.65 -1 14.3 -1 16 C-3.3396669 17.16983345 -4.83391527 17.1661241 -7.4375 17.1875 C-8.61119141 17.20876953 -8.61119141 17.20876953 -9.80859375 17.23046875 C-12 17 -12 17 -15 15 C-15 14.34 -15 13.68 -15 13 C-15.66 13 -16.32 13 -17 13 C-17.59196617 6.01479915 -17.59196617 6.01479915 -15.25 2 C-10.34061709 -1.02115871 -5.61992525 -0.40334392 0 0 Z " fill="#717379" transform="translate(101,22)"/>
<path d="M0 0 C0 1.98 0 3.96 0 6 C-0.928125 6.391875 -1.85625 6.78375 -2.8125 7.1875 C-6.33735063 9.19182683 -7.54852612 10.24324407 -9 14 C-8.92567427 18.16224107 -8.56572718 20.29712683 -5.9375 23.5625 C-3.54272689 26.57527907 -3.65102124 28.24847835 -4 32 C-9.03372844 30.56179187 -10.98955889 28.09754485 -14 24 C-15.45016555 19.64950335 -15.51070107 15.54665815 -15 11 C-11.90781383 4.81562766 -7.21867376 0 0 0 Z " fill="#F4F4F5" transform="translate(54,14)"/>
<path d="M0 0 C3.90313457 0 6.00013396 0.12388948 8.98828125 2.7421875 C13.22731334 7.53413682 15.48797864 11.08192231 15.4140625 17.734375 C14.61103956 22.12827412 12.05245381 25.80849732 9 29 C6.29296875 30.2578125 6.29296875 30.2578125 4 31 C3.63016845 24.46630934 3.63016845 24.46630934 5.4375 22.1875 C5.953125 21.795625 6.46875 21.40375 7 21 C8.57170996 17.85658007 8.23175783 14.44228549 8 11 C7.67 10.01 7.34 9.02 7 8 C4.57616923 6.83046584 4.57616923 6.83046584 2 6 C1.34 5.67 0.68 5.34 0 5 C0 3.35 0 1.7 0 0 Z " fill="#F5F5F6" transform="translate(57,15)"/>
<path d="M0 0 C0 1.65 0 3.3 0 5 C-0.33 4.34 -0.66 3.68 -1 3 C-2.85907678 2.49625772 -2.85907678 2.49625772 -5 2.3125 C-5.721875 2.22613281 -6.44375 2.13976562 -7.1875 2.05078125 C-7.785625 2.03402344 -8.38375 2.01726563 -9 2 C-10.28612676 3.05978933 -10.28612676 3.05978933 -10.09765625 5.50390625 C-10.08605469 6.51324219 -10.07445313 7.52257812 -10.0625 8.5625 C-10.05347656 9.57441406 -10.04445313 10.58632813 -10.03515625 11.62890625 C-10.02355469 12.41136719 -10.01195313 13.19382812 -10 14 C-8.02 14.66 -6.04 15.32 -4 16 C-4 14.02 -4 12.04 -4 10 C-2.35 10 -0.7 10 1 10 C0.625 12.9375 0.625 12.9375 0 16 C-2.3396669 17.16983345 -3.83391527 17.1661241 -6.4375 17.1875 C-7.61119141 17.20876953 -7.61119141 17.20876953 -8.80859375 17.23046875 C-11 17 -11 17 -14 15 C-14 14.34 -14 13.68 -14 13 C-14.66 13 -15.32 13 -16 13 C-16.59456689 5.98411071 -16.59456689 5.98411071 -14.1875 2 C-9.54501743 -0.91293024 -5.33972223 -0.42081874 0 0 Z " fill="#F1F1F2" transform="translate(100,22)"/>
<path d="M0 0 C1.051875 0.12375 2.10375 0.2475 3.1875 0.375 C3.1875 0.705 3.1875 1.035 3.1875 1.375 C1.2075 2.035 -0.7725 2.695 -2.8125 3.375 C-4.10866272 9.66351034 -4.10866272 9.66351034 -1.8125 15.375 C1.81278568 15.57640476 4.05251708 15.23276765 7.1875 13.375 C6.1875 15.375 6.1875 15.375 4.1875 17.375 C-0.78909534 18.097409 -2.68476284 18.17381382 -6.8125 15.25 C-8.8125 12.375 -8.8125 12.375 -9.4375 9.4375 C-8.28040893 3.76775374 -5.85664908 0.57606384 0 0 Z " fill="#F0F0F1" transform="translate(121.8125,21.625)"/>
<path d="M0 0 C2.64 0 5.28 0 8 0 C7.67 0.66 7.34 1.32 7 2 C6.76970044 4.37123246 6.58880058 6.74741943 6.4375 9.125 C6.35371094 10.40632813 6.26992187 11.68765625 6.18359375 13.0078125 C6.12300781 13.99523438 6.06242187 14.98265625 6 16 C6.66 16.33 7.32 16.66 8 17 C5.36 17 2.72 17 0 17 C0.66 16.67 1.32 16.34 2 16 C1.85936865 13.70800823 1.71234057 11.41640814 1.5625 9.125 C1.48128906 7.84882813 1.40007812 6.57265625 1.31640625 5.2578125 C1.20793973 2.11699848 1.20793973 2.11699848 0 0 Z " fill="#EEEEEF" transform="translate(103,22)"/>
<path d="M0 0 C1.98 0 3.96 0 6 0 C6 3.96 6 7.92 6 12 C4.02 12 2.04 12 0 12 C0 8.04 0 4.08 0 0 Z " fill="#F1F0F1" transform="translate(52,35)"/>
<path d="M0 0 C0 1.65 0 3.3 0 5 C-0.33 4.34 -0.66 3.68 -1 3 C-2.85907678 2.49625772 -2.85907678 2.49625772 -5 2.3125 C-5.721875 2.22613281 -6.44375 2.13976562 -7.1875 2.05078125 C-7.785625 2.03402344 -8.38375 2.01726563 -9 2 C-10.58272601 3.58272601 -10.34735747 5.38034003 -10.5625 7.5625 C-10.64628906 8.38878906 -10.73007813 9.21507812 -10.81640625 10.06640625 C-10.87699219 10.70449219 -10.93757813 11.34257813 -11 12 C-11.33 12 -11.66 12 -12 12 C-12.33 9.69 -12.66 7.38 -13 5 C-14.96822886 6.96822886 -14.66248381 10.34808709 -15 13 C-15.33 13 -15.66 13 -16 13 C-16.59456689 5.98411071 -16.59456689 5.98411071 -14.1875 2 C-9.54501743 -0.91293024 -5.33972223 -0.42081874 0 0 Z " fill="#DEDEDF" transform="translate(100,22)"/>
<path d="M0 0 C0.33 0 0.66 0 1 0 C1.66 3.96 2.32 7.92 3 12 C1.68 11.67 0.36 11.34 -1 11 C-2.50662097 7.98675805 -2.17770373 5.31713623 -2 2 C-1.34 1.34 -0.68 0.68 0 0 Z " fill="#FBFBFB" transform="translate(87,26)"/>
<path d="M0 0 C2.475 0.495 2.475 0.495 5 1 C4.67 2.32 4.34 3.64 4 5 C2.68 5 1.36 5 0 5 C0 3.35 0 1.7 0 0 Z " fill="#F4F4F5" transform="translate(53,28)"/>
</svg>
